<svg xmlns="http://www.w3.org/2000/svg" viewBox="0 0 64 64" fill="none">
  <defs>
    <linearGradient id="gold" x1="8" y1="6" x2="56" y2="58" gradientUnits="userSpaceOnUse">
      <stop stop-color="#F2D29B"/><stop offset=".48" stop-color="#C99555"/><stop offset="1" stop-color="#8D5C2F"/>
    </linearGradient>
  </defs>
  <path d="m12 22 20-13 20 13H12Z" stroke="url(#gold)" stroke-width="2.2" stroke-linejoin="round"/>
  <path d="M17 26h30M14 53h36M10 58h44" stroke="url(#gold)" stroke-width="2.2" stroke-linecap="round"/>
  <path d="M20 27v25M28 27v25M36 27v25M44 27v25" stroke="url(#gold)" stroke-width="2"/>
  <path d="M32 14.5 34 18l4 .6-2.9 2.8.7 4-3.8-2-3.8 2 .7-4-2.9-2.8 4-.6 2-3.5Z" fill="url(#gold)"/>
  <path d="M9 44c-3-4.2-3.4-9.8-1-14.4M55 44c3-4.2 3.4-9.8 1-14.4" stroke="url(#gold)" stroke-width="1.4" stroke-linecap="round" opacity=".75"/>
</svg>
